<svg width="25" height="25" viewBox="0 0 25 25" fill="none" xmlns="http://www.w3.org/2000/svg">
<g clip-path="url(#clip0_14241_2926)">
<mask id="path-1-inside-1_14241_2926" fill="white">
<path d="M16.7289 11.7533C17.3354 11.2988 17.7858 10.6672 18.0179 9.94578C18.2501 9.22434 18.2525 8.44862 18.025 7.72571C17.7974 7.00281 17.3511 6.36837 16.7475 5.90999C16.144 5.4516 15.4131 5.19188 14.6556 5.16667V3.16667C14.6556 2.98986 14.5854 2.82029 14.4603 2.69526C14.3353 2.57024 14.1657 2.5 13.9889 2.5C13.8121 2.5 13.6426 2.57024 13.5175 2.69526C13.3925 2.82029 13.3223 2.98986 13.3223 3.16667V5.16667H11.3223V3.16667C11.3223 2.98986 11.252 2.82029 11.127 2.69526C11.002 2.57024 10.8324 2.5 10.6556 2.5C10.4788 2.5 10.3092 2.57024 10.1842 2.69526C10.0592 2.82029 9.98893 2.98986 9.98893 3.16667V5.16667H7.98893C7.81212 5.16667 7.64255 5.2369 7.51753 5.36193C7.3925 5.48695 7.32227 5.65652 7.32227 5.83333V19.1667C7.32227 19.3435 7.3925 19.513 7.51753 19.6381C7.64255 19.7631 7.81212 19.8333 7.98893 19.8333H9.98893V21.8333C9.98893 22.0101 10.0592 22.1797 10.1842 22.3047C10.3092 22.4298 10.4788 22.5 10.6556 22.5C10.8324 22.5 11.002 22.4298 11.127 22.3047C11.252 22.1797 11.3223 22.0101 11.3223 21.8333V19.8333H13.3223V21.8333C13.3223 22.0101 13.3925 22.1797 13.5175 22.3047C13.6426 22.4298 13.8121 22.5 13.9889 22.5C14.1657 22.5 14.3353 22.4298 14.4603 22.3047C14.5854 22.1797 14.6556 22.0101 14.6556 21.8333V19.8333H14.7089C15.7787 19.8071 16.7946 19.3582 17.5342 18.5848C18.2739 17.8114 18.6771 16.7766 18.6556 15.7067V15.2933C18.6601 14.5885 18.4857 13.894 18.1488 13.2749C17.8118 12.6558 17.3233 12.1323 16.7289 11.7533ZM8.6556 6.5H14.4489C14.9463 6.49208 15.4338 6.63935 15.8436 6.92133C16.2535 7.2033 16.5652 7.60597 16.7356 8.07333C16.8555 8.42587 16.8895 8.80192 16.8348 9.17024C16.7802 9.53856 16.6384 9.88851 16.4213 10.191C16.2042 10.4935 15.918 10.7399 15.5866 10.9096C15.2551 11.0793 14.888 11.1674 14.5156 11.1667H8.6556V6.5ZM17.3223 15.7067C17.342 16.4248 17.0769 17.1215 16.5848 17.6449C16.0927 18.1682 15.4136 18.4756 14.6956 18.5H8.6556V12.5H14.6956C15.4136 12.5244 16.0927 12.8318 16.5848 13.3551C17.0769 13.8785 17.342 14.5752 17.3223 15.2933V15.7067Z"/>
</mask>
<path d="M16.7289 11.7533C17.3354 11.2988 17.7858 10.6672 18.0179 9.94578C18.2501 9.22434 18.2525 8.44862 18.025 7.72571C17.7974 7.00281 17.3511 6.36837 16.7475 5.90999C16.144 5.4516 15.4131 5.19188 14.6556 5.16667V3.16667C14.6556 2.98986 14.5854 2.82029 14.4603 2.69526C14.3353 2.57024 14.1657 2.5 13.9889 2.5C13.8121 2.5 13.6426 2.57024 13.5175 2.69526C13.3925 2.82029 13.3223 2.98986 13.3223 3.16667V5.16667H11.3223V3.16667C11.3223 2.98986 11.252 2.82029 11.127 2.69526C11.002 2.57024 10.8324 2.5 10.6556 2.5C10.4788 2.5 10.3092 2.57024 10.1842 2.69526C10.0592 2.82029 9.98893 2.98986 9.98893 3.16667V5.16667H7.98893C7.81212 5.16667 7.64255 5.2369 7.51753 5.36193C7.3925 5.48695 7.32227 5.65652 7.32227 5.83333V19.1667C7.32227 19.3435 7.3925 19.513 7.51753 19.6381C7.64255 19.7631 7.81212 19.8333 7.98893 19.8333H9.98893V21.8333C9.98893 22.0101 10.0592 22.1797 10.1842 22.3047C10.3092 22.4298 10.4788 22.5 10.6556 22.5C10.8324 22.5 11.002 22.4298 11.127 22.3047C11.252 22.1797 11.3223 22.0101 11.3223 21.8333V19.8333H13.3223V21.8333C13.3223 22.0101 13.3925 22.1797 13.5175 22.3047C13.6426 22.4298 13.8121 22.5 13.9889 22.5C14.1657 22.5 14.3353 22.4298 14.4603 22.3047C14.5854 22.1797 14.6556 22.0101 14.6556 21.8333V19.8333H14.7089C15.7787 19.8071 16.7946 19.3582 17.5342 18.5848C18.2739 17.8114 18.6771 16.7766 18.6556 15.7067V15.2933C18.6601 14.5885 18.4857 13.894 18.1488 13.2749C17.8118 12.6558 17.3233 12.1323 16.7289 11.7533ZM8.6556 6.5H14.4489C14.9463 6.49208 15.4338 6.63935 15.8436 6.92133C16.2535 7.2033 16.5652 7.60597 16.7356 8.07333C16.8555 8.42587 16.8895 8.80192 16.8348 9.17024C16.7802 9.53856 16.6384 9.88851 16.4213 10.191C16.2042 10.4935 15.918 10.7399 15.5866 10.9096C15.2551 11.0793 14.888 11.1674 14.5156 11.1667H8.6556V6.5ZM17.3223 15.7067C17.342 16.4248 17.0769 17.1215 16.5848 17.6449C16.0927 18.1682 15.4136 18.4756 14.6956 18.5H8.6556V12.5H14.6956C15.4136 12.5244 16.0927 12.8318 16.5848 13.3551C17.0769 13.8785 17.342 14.5752 17.3223 15.2933V15.7067Z" fill="white"/>
<path d="M14.6556 5.16667H10.6556V9.03575L14.5225 9.16445L14.6556 5.16667ZM13.9889 2.5V-1.5V2.5ZM13.3223 5.16667V9.16667H17.3223V5.16667H13.3223ZM11.3223 5.16667H7.32227V9.16667H11.3223V5.16667ZM10.6556 2.5V-1.5V2.5ZM9.98893 5.16667V9.16667H13.9889V5.16667H9.98893ZM9.98893 19.8333H13.9889V15.8333H9.98893V19.8333ZM11.3223 19.8333V15.8333H7.32227V19.8333H11.3223ZM13.3223 19.8333H17.3223V15.8333H13.3223V19.8333ZM14.6556 19.8333V15.8333H10.6556V19.8333H14.6556ZM14.7089 19.8333V23.8333H14.758L14.807 23.8321L14.7089 19.8333ZM18.6556 15.7067H14.6556V15.7468L14.6564 15.7869L18.6556 15.7067ZM18.6556 15.2933L14.6557 15.2678L14.6556 15.2806V15.2933H18.6556ZM8.6556 6.5V2.5H4.6556V6.5H8.6556ZM14.4489 6.5V10.5H14.4808L14.5126 10.4995L14.4489 6.5ZM16.7356 8.07333L20.5226 6.78558L20.5086 6.74431L20.4937 6.70337L16.7356 8.07333ZM14.5156 11.1667L14.5234 7.16667H14.5156V11.1667ZM8.6556 11.1667H4.6556V15.1667H8.6556V11.1667ZM17.3223 15.7067H13.3223V15.7618L13.3238 15.8168L17.3223 15.7067ZM14.6956 18.5V22.5H14.7635L14.8313 22.4977L14.6956 18.5ZM8.6556 18.5H4.6556V22.5H8.6556V18.5ZM8.6556 12.5V8.5H4.6556V12.5H8.6556ZM14.6956 12.5L14.8313 8.5023L14.7635 8.5H14.6956V12.5ZM17.3223 15.2933L13.3238 15.1832L13.3223 15.2382V15.2933H17.3223ZM19.1279 14.9541C20.3971 14.0028 21.3398 12.681 21.8256 11.1711L14.2102 8.72049C14.2318 8.65347 14.2736 8.5948 14.3299 8.55258L19.1279 14.9541ZM21.8256 11.1711C22.3115 9.66116 22.3167 8.03767 21.8404 6.5247L14.2095 8.92673C14.1884 8.85957 14.1886 8.78751 14.2102 8.72049L21.8256 11.1711ZM21.8404 6.5247C21.3642 5.01174 20.43 3.68392 19.1669 2.72457L14.3282 9.0954C14.2721 9.05282 14.2307 8.99388 14.2095 8.92673L21.8404 6.5247ZM19.1669 2.72457C17.9037 1.76522 16.3739 1.22164 14.7887 1.16888L14.5225 9.16445C14.4522 9.16211 14.3843 9.13798 14.3282 9.0954L19.1669 2.72457ZM18.6556 5.16667V3.16667H10.6556V5.16667H18.6556ZM18.6556 3.16667C18.6556 1.929 18.1639 0.742012 17.2888 -0.133165L11.6319 5.52369C11.0068 4.89856 10.6556 4.05071 10.6556 3.16667H18.6556ZM17.2888 -0.133165C16.4136 -1.00834 15.2266 -1.5 13.9889 -1.5V6.5C13.1049 6.5 12.257 6.14881 11.6319 5.52369L17.2888 -0.133165ZM13.9889 -1.5C12.7513 -1.5 11.5643 -1.00834 10.6891 -0.133165L16.346 5.52369C15.7208 6.14881 14.873 6.5 13.9889 6.5V-1.5ZM10.6891 -0.133165C9.81393 0.742007 9.32227 1.92899 9.32227 3.16667H17.3223C17.3223 4.05072 16.9711 4.89857 16.346 5.52369L10.6891 -0.133165ZM9.32227 3.16667V5.16667H17.3223V3.16667H9.32227ZM13.3223 1.16667H11.3223V9.16667H13.3223V1.16667ZM15.3223 5.16667V3.16667H7.32227V5.16667H15.3223ZM15.3223 3.16667C15.3223 1.92899 14.8306 0.742004 13.9554 -0.133165L8.29858 5.52369C7.67346 4.89857 7.32227 4.05072 7.32227 3.16667H15.3223ZM13.9554 -0.133165C13.0803 -1.00833 11.8933 -1.5 10.6556 -1.5V6.5C9.77154 6.5 8.9237 6.14881 8.29858 5.52369L13.9554 -0.133165ZM10.6556 -1.5C9.41792 -1.5 8.23094 -1.00834 7.35577 -0.133165L13.0126 5.52369C12.3875 6.14881 11.5397 6.5 10.6556 6.5V-1.5ZM7.35577 -0.133165C6.4806 0.742004 5.98893 1.92899 5.98893 3.16667H13.9889C13.9889 4.05072 13.6377 4.89857 13.0126 5.52369L7.35577 -0.133165ZM5.98893 3.16667V5.16667H13.9889V3.16667H5.98893ZM9.98893 1.16667H7.98893V9.16667H9.98893V1.16667ZM7.98893 1.16667C6.75125 1.16667 5.56427 1.65833 4.6891 2.5335L10.346 8.19036C9.72083 8.81548 8.87299 9.16667 7.98893 9.16667V1.16667ZM4.6891 2.5335C3.81393 3.40867 3.32227 4.59565 3.32227 5.83333H11.3223C11.3223 6.71739 10.9711 7.56524 10.346 8.19036L4.6891 2.5335ZM3.32227 5.83333V19.1667H11.3223V5.83333H3.32227ZM3.32227 19.1667C3.32227 20.4043 3.81393 21.5913 4.6891 22.4665L10.346 16.8096C10.9711 17.4348 11.3223 18.2826 11.3223 19.1667H3.32227ZM4.6891 22.4665C5.56428 23.3417 6.75127 23.8333 7.98893 23.8333V15.8333C8.87297 15.8333 9.72082 16.1845 10.346 16.8096L4.6891 22.4665ZM7.98893 23.8333H9.98893V15.8333H7.98893V23.8333ZM5.98893 19.8333V21.8333H13.9889V19.8333H5.98893ZM5.98893 21.8333C5.98893 23.071 6.4806 24.258 7.35577 25.1332L13.0126 19.4763C13.6377 20.1014 13.9889 20.9493 13.9889 21.8333H5.98893ZM7.35577 25.1332C8.23095 26.0083 9.41794 26.5 10.6556 26.5V18.5C11.5396 18.5 12.3875 18.8512 13.0126 19.4763L7.35577 25.1332ZM10.6556 26.5C11.8933 26.5 13.0802 26.0083 13.9554 25.1332L8.29858 19.4763C8.92371 18.8512 9.77156 18.5 10.6556 18.5V26.5ZM13.9554 25.1332C14.8306 24.258 15.3223 23.071 15.3223 21.8333H7.32227C7.32227 20.9493 7.67345 20.1014 8.29858 19.4763L13.9554 25.1332ZM15.3223 21.8333V19.8333H7.32227V21.8333H15.3223ZM11.3223 23.8333H13.3223V15.8333H11.3223V23.8333ZM9.32227 19.8333V21.8333H17.3223V19.8333H9.32227ZM9.32227 21.8333C9.32227 23.071 9.81393 24.258 10.6891 25.1332L16.346 19.4763C16.9711 20.1014 17.3223 20.9493 17.3223 21.8333H9.32227ZM10.6891 25.1332C11.5643 26.0084 12.7513 26.5 13.9889 26.5V18.5C14.873 18.5 15.7208 18.8512 16.346 19.4763L10.6891 25.1332ZM13.9889 26.5C15.2266 26.5 16.4136 26.0084 17.2888 25.1332L11.6319 19.4763C12.257 18.8512 13.1049 18.5 13.9889 18.5V26.5ZM17.2888 25.1332C18.1639 24.258 18.6556 23.071 18.6556 21.8333H10.6556C10.6556 20.9493 11.0068 20.1014 11.6319 19.4763L17.2888 25.1332ZM18.6556 21.8333V19.8333H10.6556V21.8333H18.6556ZM14.6556 23.8333H14.7089V15.8333H14.6556V23.8333ZM14.807 23.8321C16.9343 23.78 18.9543 22.8873 20.425 21.3495L14.6435 15.8201C14.6349 15.8291 14.6232 15.8342 14.6109 15.8345L14.807 23.8321ZM20.425 21.3495C21.8958 19.8117 22.6975 17.7539 22.6548 15.6264L14.6564 15.7869C14.6567 15.7993 14.652 15.8112 14.6435 15.8201L20.425 21.3495ZM22.6556 15.7067V15.2933H14.6556V15.7067H22.6556ZM22.6555 15.3189C22.6643 13.9374 22.3225 12.5762 21.6621 11.3627L14.6354 15.187C14.6489 15.2118 14.6559 15.2396 14.6557 15.2678L22.6555 15.3189ZM21.6621 11.3627C21.0017 10.1493 20.0442 9.12317 18.8793 8.38048L14.5786 15.1262C14.6024 15.1413 14.6219 15.1623 14.6354 15.187L21.6621 11.3627ZM8.6556 10.5H14.4489V2.5H8.6556V10.5ZM14.5126 10.4995C14.1787 10.5048 13.8514 10.4059 13.5763 10.2167L18.111 3.626C17.0162 2.87276 15.714 2.47936 14.3853 2.50051L14.5126 10.4995ZM13.5763 10.2167C13.3012 10.0274 13.0919 9.75705 12.9775 9.4433L20.4937 6.70337C20.0386 5.45488 19.2057 4.37924 18.111 3.626L13.5763 10.2167ZM12.9486 9.36109C12.8635 9.11101 12.8394 8.84424 12.8782 8.58295L20.7915 9.75753C20.9396 8.7596 20.8474 7.74073 20.5226 6.78558L12.9486 9.36109ZM12.8782 8.58295C12.917 8.32165 13.0175 8.07339 13.1715 7.85879L19.671 12.5233C20.2592 11.7036 20.6433 10.7555 20.7915 9.75753L12.8782 8.58295ZM13.1715 7.85879C13.3256 7.64419 13.5286 7.46944 13.7637 7.34906L17.4094 14.4701C18.3074 14.0103 19.0828 13.3429 19.671 12.5233L13.1715 7.85879ZM13.7637 7.34906C13.9988 7.22868 14.2593 7.16616 14.5234 7.16667L14.5078 15.1667C15.5166 15.1686 16.5114 14.9298 17.4094 14.4701L13.7637 7.34906ZM14.5156 7.16667H8.6556V15.1667H14.5156V7.16667ZM12.6556 11.1667V6.5H4.6556V11.1667H12.6556ZM13.3238 15.8168C13.3145 15.4789 13.4392 15.151 13.6708 14.9047L19.4989 20.385C20.7147 19.0921 21.3696 17.3706 21.3208 15.5965L13.3238 15.8168ZM13.6708 14.9047C13.9024 14.6584 14.222 14.5138 14.5599 14.5023L14.8313 22.4977C16.6051 22.4375 18.283 21.678 19.4989 20.385L13.6708 14.9047ZM14.6956 14.5H8.6556V22.5H14.6956V14.5ZM12.6556 18.5V12.5H4.6556V18.5H12.6556ZM8.6556 16.5H14.6956V8.5H8.6556V16.5ZM14.5599 16.4977C14.222 16.4862 13.9024 16.3416 13.6708 16.0953L19.4989 10.615C18.2831 9.32202 16.6051 8.56253 14.8313 8.5023L14.5599 16.4977ZM13.6708 16.0953C13.4392 15.849 13.3145 15.5211 13.3238 15.1832L21.3208 15.4035C21.3696 13.6294 20.7147 11.9079 19.4989 10.615L13.6708 16.0953ZM13.3223 15.2933V15.7067H21.3223V15.2933H13.3223Z" fill="#FE6B00" mask="url(#path-1-inside-1_14241_2926)"/>
</g>
<defs>
<clipPath id="clip0_14241_2926">
<rect width="24" height="24" fill="white" transform="translate(0.65625 0.5)"/>
</clipPath>
</defs>
</svg>
