<svg width="52" height="52" viewBox="0 0 52 52" fill="none" xmlns="http://www.w3.org/2000/svg">
<path d="M33.76 27.3066L31.3002 27.9319L27.1353 25.6484L31.3002 23.365L33.76 23.9903L34.1445 22.6236L32.1081 22.1057L32.6538 20.1732L31.2139 19.8081L30.5548 22.1397L26.3899 24.4233V19.8592L28.1907 18.1501L27.1352 17.1484L25.6445 18.5632L24.1538 17.1484L23.0984 18.1501L24.8992 19.8592V24.4233L20.7343 22.1397L20.0752 19.8081L18.6352 20.1732L19.1809 22.1057L17.1445 22.6236L17.5291 23.9903L19.9889 23.365L24.1538 25.6484L19.9889 27.9319L17.5291 27.3066L17.1445 28.6732L19.1809 29.1911L18.6352 31.1237L20.0752 31.4888L20.7343 29.1572L24.8992 26.8735V31.4377L23.0984 33.1468L24.1538 34.1484L25.6445 32.7336L27.1352 34.1484L28.1907 33.1468L26.3899 31.4377V26.8735L30.5548 29.1572L31.2139 31.4888L32.6538 31.1237L32.1081 29.1911L34.1445 28.6732L33.76 27.3066Z" fill="url(#paint0_linear_14241_2768)"/>
<path opacity="0.9" d="M40.4977 41.3335C41.7247 42.6293 43.789 42.6966 44.9145 41.3118C47.3351 38.3339 49.0422 34.8232 49.8831 31.0489C50.9592 26.2189 50.5678 21.1775 48.7591 16.5715C46.9503 11.9655 43.8067 8.00488 39.7316 5.1978C35.6564 2.39072 30.8356 0.865166 25.8874 0.816844C20.9393 0.768523 16.0895 2.19964 11.9603 4.9266C7.83112 7.65356 4.61078 11.552 2.71243 16.1218C0.814076 20.6916 0.324283 25.7244 1.30588 30.5745C2.07294 34.3645 3.71115 37.9079 6.07309 40.9325C7.17139 42.339 9.23661 42.312 10.4887 41.0405C11.7407 39.769 11.6968 37.7361 10.6641 36.2809C9.1857 34.1979 8.15092 31.8193 7.63953 29.2926C6.91337 25.7046 7.27571 21.9815 8.68006 18.6009C10.0844 15.2203 12.4667 12.3363 15.5214 10.319C18.5761 8.30162 22.1638 7.24292 25.8243 7.27867C29.4848 7.31442 33.0512 8.44298 36.0659 10.5196C39.0806 12.5962 41.4061 15.5261 42.7442 18.9335C44.0822 22.3409 44.3718 26.0704 43.5757 29.6435C43.0151 32.1598 41.934 34.5177 40.4153 36.5715C39.3543 38.0062 39.2708 40.0378 40.4977 41.3335Z" fill="url(#paint1_linear_14241_2768)"/>
<path opacity="0.9" d="M9.87138 10.8901C8.56828 9.67102 6.50368 9.72871 5.46396 11.179C3.22797 14.2979 1.73637 17.9055 1.12531 21.7237C0.34333 26.61 1.03899 31.6184 3.12306 36.1066C5.20712 40.5948 8.58454 44.3579 12.822 46.9134C17.0596 49.4688 21.9639 50.6999 26.9059 50.4488C31.8479 50.1977 36.6022 48.4759 40.5589 45.5041C44.5155 42.5324 47.4941 38.4462 49.1126 33.77C50.731 29.0937 50.9155 24.0405 49.6423 19.2587C48.6474 15.522 46.7978 12.0842 44.2572 9.20799C43.0758 7.87056 41.016 8.02241 39.8432 9.36733C38.6704 10.7122 38.8371 12.7387 39.956 14.1288C41.5577 16.1186 42.7345 18.4302 43.3978 20.9214C44.3396 24.4588 44.2032 28.197 43.0059 31.6564C41.8086 35.1158 39.6051 38.1386 36.6781 40.337C33.751 42.5355 30.2339 43.8093 26.578 43.995C22.922 44.1808 19.2939 43.27 16.1591 41.3796C13.0243 39.4891 10.5258 36.7052 8.98406 33.385C7.44232 30.0648 6.92769 26.3597 7.50618 22.7449C7.91357 20.1994 8.84998 17.7804 10.2417 15.6385C11.214 14.1422 11.1745 12.1093 9.87138 10.8901Z" fill="url(#paint2_linear_14241_2768)"/>
<defs>
<linearGradient id="paint0_linear_14241_2768" x1="12.5702" y1="26.0958" x2="36.261" y2="26.0958" gradientUnits="userSpaceOnUse">
<stop stop-color="#F9654F"/>
<stop offset="1" stop-color="#FF26E9"/>
</linearGradient>
<linearGradient id="paint1_linear_14241_2768" x1="-12.5727" y1="25.9145" x2="56.6135" y2="27.7998" gradientUnits="userSpaceOnUse">
<stop stop-color="#F9654F"/>
<stop offset="1" stop-color="#FF26E9"/>
</linearGradient>
<linearGradient id="paint2_linear_14241_2768" x1="63.7773" y1="23.0706" x2="-5.39623" y2="25.374" gradientUnits="userSpaceOnUse">
<stop stop-color="#F9654F"/>
<stop offset="1" stop-color="#FF26E9"/>
</linearGradient>
</defs>
</svg>
