<svg width="56" height="56" viewBox="0 0 56 56" fill="none" xmlns="http://www.w3.org/2000/svg">
<path d="M28 56C43.464 56 56 43.464 56 28C56 12.536 43.464 0 28 0C12.536 0 0 12.536 0 28C0 43.464 12.536 56 28 56Z" fill="#32BA7C"/>
<path d="M20.8457 40.6298L35.2432 55.0273C47.1675 51.8475 56.0003 40.9831 56.0003 27.9989V27.204L44.6943 16.7812L20.8457 40.6298Z" fill="#0AA06E"/>
<path d="M28.7059 34.2725C29.9425 35.5091 29.9425 37.629 28.7059 38.8656L26.1444 41.4271C24.9078 42.6637 22.788 42.6637 21.5514 41.4271L10.3337 30.1211C9.0971 28.8845 9.0971 26.7646 10.3337 25.528L12.8952 22.9665C14.1318 21.7299 16.2517 21.7299 17.4883 22.9665L28.7059 34.2725Z" fill="white"/>
<path d="M38.512 14.7478C39.7486 13.5112 41.8684 13.5112 43.105 14.7478L45.6665 17.3093C46.9031 18.5459 46.9031 20.6657 45.6665 21.9023L26.2344 41.2462C24.9978 42.4828 22.8779 42.4828 21.6413 41.2462L19.0798 38.6847C17.8432 37.4481 17.8432 35.3282 19.0798 34.0916L38.512 14.7478Z" fill="white"/>
</svg>
