<svg width="24" height="24" viewBox="0 0 24 24" fill="none" xmlns="http://www.w3.org/2000/svg">
<path d="M18.889 7.00831C19.697 6.51231 20.232 5.83531 20.494 4.97431C19.7561 5.37342 18.9642 5.66344 18.143 5.83531C17.44 5.07931 16.55 4.69531 15.483 4.69531C14.44 4.69531 13.559 5.06131 12.84 5.77331C12.4928 6.11142 12.2183 6.51686 12.0333 6.96479C11.8482 7.41273 11.7566 7.89373 11.764 8.37831C11.764 8.68731 11.803 8.96331 11.881 9.19731C8.80505 9.09231 6.25905 7.81631 4.25305 5.36031C3.91305 5.96131 3.74305 6.57331 3.74305 7.20631C3.74305 8.50731 4.29205 9.53831 5.38805 10.2953C4.76305 10.2423 4.21205 10.0843 3.74305 9.82531C3.74305 10.7543 4.01605 11.5303 4.56305 12.2133C5.0944 12.8788 5.84323 13.3359 6.67805 13.5043C6.36605 13.5843 6.03705 13.6223 5.69905 13.6223C5.38705 13.6223 5.16605 13.5963 5.03505 13.5393C5.26505 14.2963 5.69905 14.9103 6.32605 15.3803C6.94589 15.851 7.69987 16.1113 8.47805 16.1233C7.14605 17.1683 5.62305 17.6853 3.90005 17.6853C3.47805 17.6853 3.17905 17.6793 2.99805 17.6473C4.69505 18.7493 6.58405 19.2963 8.67405 19.2963C10.813 19.2963 12.703 18.7543 14.348 17.6703C15.993 16.5923 17.207 15.2623 17.987 13.6963C18.7584 12.181 19.16 10.5046 19.159 8.80431V8.33631C19.878 7.80624 20.5004 7.15643 20.999 6.41531C20.3257 6.70717 19.6159 6.90665 18.889 7.00831Z" fill="white"/>
</svg>
