<svg width="24" height="24" viewBox="0 0 24 24" fill="none" xmlns="http://www.w3.org/2000/svg">
<path d="M6.29766 7.02891C6.13242 7.06758 6.23789 7.06055 6.10078 7.07812C5.51367 7.20469 5.94961 7.31719 6.29766 7.02891ZM16.623 7.26445C16.6652 7.23633 16.8129 7.09219 16.3523 6.95156C16.3805 7.0957 16.2574 7.08164 16.2574 7.1625C16.5984 7.47188 16.7391 8.00977 17.175 8.12227C17.2594 7.73555 16.7883 7.5457 16.623 7.26445ZM5.98477 6.91641C6.0375 7.2293 6.27305 6.58594 6.27656 6.35742C6.18516 6.41016 6.09375 6.46289 5.99883 6.50508C6.22031 6.61758 6.02695 6.73711 5.78789 6.91641C5.30273 7.52109 6.24141 6.44531 5.98477 6.91641ZM12 3C7.02891 3 3 7.02891 3 12C3 16.9676 7.02891 21 12 21C16.9711 21 21 16.9676 21 12C21 7.02891 16.9711 3 12 3ZM12.2391 6.01641L12.2812 6.03047C12.1125 6.24844 13.1602 6.88477 12.4078 6.9375C11.7047 7.13789 12.7031 6.75469 12.1582 6.82148C12.4465 6.4207 11.9297 6.41367 12.2391 6.01641ZM7.97109 6.59297C7.71797 6.38203 6.92344 6.88125 7.20117 6.76172C7.89023 6.49102 7.24688 6.78984 7.40859 7.11328C7.26094 7.41914 7.35938 6.81094 6.99375 7.17305C6.73008 7.23281 6.0832 7.83047 6.16406 7.64766C6.14297 7.93242 5.39414 8.26992 5.29219 8.74453C5.04609 9.40195 5.23242 8.71992 5.18672 8.46328C4.83516 8.0168 4.19531 9.21914 4.38516 9.69375C4.70508 9.13125 4.68047 9.63398 4.44844 9.88359C4.68398 10.316 4.23398 10.8785 4.68047 11.1984C4.87734 11.2441 5.27109 10.5375 5.09883 11.2723C5.21836 10.6359 5.4293 11.4234 5.77031 11.2477C5.79141 11.5816 5.99883 11.427 6.04453 11.8313C6.61406 11.7891 7.13438 12.7523 6.45586 12.9352C6.55781 12.907 6.7582 13.0863 6.99023 12.9492C7.38398 13.2621 8.42109 13.3008 8.44922 14.0742C7.73555 14.4152 8.27344 15.3504 7.65469 15.6844C6.94453 15.5789 7.41211 16.5598 7.11328 16.4473C7.23281 17.1539 6.39609 16.3559 6.71953 16.7461C7.31367 17.1117 6.45937 17.0379 6.72656 17.3051C6.42773 17.2418 6.91289 17.8605 6.99375 18.0891C7.42266 18.7852 6.62461 17.9344 6.38906 17.7023C6.16406 17.2523 5.6332 16.391 5.48555 15.6844C5.40117 14.6578 4.60664 13.9688 4.42383 12.9668C4.24102 12.4078 4.92656 11.5113 4.55742 11.1984C4.2375 10.9488 4.36758 10.0945 4.17773 9.64453C4.65234 7.58789 6.16055 5.85469 7.97109 4.82812C7.78477 4.96523 9.03633 4.47305 8.89219 4.59258C8.85352 4.68047 9.62344 4.25859 10.0875 4.19531C10.0383 4.20234 8.88164 4.61719 9.20156 4.56094C8.70586 4.80352 9.15234 4.66641 9.39844 4.54336C8.90625 4.90547 8.52656 4.80352 7.96758 5.12344C7.40508 5.27109 7.52109 5.85469 7.12031 6.14648C7.35586 6.18867 7.94648 5.53828 8.29102 5.30977C9.08203 4.92656 7.89023 6.00586 8.64258 5.5418C8.38945 5.77734 8.44219 6.15352 8.2875 6.25898C8.21016 6.23789 8.59336 6.4418 7.97109 6.59297ZM9.20156 4.97578C9.1207 5.08477 9.0082 5.32031 8.94141 5.17617C8.85 5.22187 8.81484 5.41875 8.64258 5.26055C8.74453 5.18672 8.85 5.01094 8.64961 5.11992C8.74102 5.02148 9.55664 4.74375 9.51094 4.63828C9.65508 4.54688 9.64102 4.50117 9.47578 4.55742C9.39141 4.5293 9.67617 4.29023 10.0559 4.25859C10.1086 4.25859 10.1297 4.29375 10.0348 4.2832C9.46172 4.45898 9.70781 4.40977 10.0945 4.2832C9.94688 4.36758 9.84492 4.39219 9.82031 4.43086C10.207 4.29023 9.79922 4.53281 9.88711 4.51523C9.77812 4.57148 9.90469 4.58906 9.69375 4.66992C9.73242 4.63828 9.34922 4.89844 9.57773 4.82109C9.35625 5.03203 9.25781 5.03555 9.20156 4.97578ZM9.53906 5.47852C9.54609 5.14102 10.0312 4.92656 9.97148 4.90898C10.5691 4.62773 9.76406 4.91953 10.2352 4.66641C10.4109 4.64883 10.7836 4.08633 11.3004 4.05117C11.8699 3.87891 11.6062 4.06172 12.0281 3.9L11.9437 3.97031C11.8699 3.98086 11.9613 4.11094 11.6941 4.30781C11.666 4.61367 11.1844 4.47305 11.4234 4.8C11.2688 4.57852 11.0367 4.79297 11.3285 4.81406C11.0156 5.05312 10.2879 5.09531 9.93984 5.49258C9.71484 5.81602 9.50742 5.71406 9.53906 5.47852ZM12.0387 6.60352C11.7996 7.18008 11.5676 6.51914 11.9895 6.41367C12.0949 6.46992 12.1371 6.4875 12.0387 6.60352ZM11.1387 5.45039C11.0684 5.19023 11.1246 5.32734 11.543 5.2043C11.8313 5.41172 11.2863 5.54883 11.1387 5.45039ZM17.6848 15.7688C17.3543 15.1992 18.0855 14.6719 18.3316 14.1937C18.3 14.7527 18.2297 15.3047 17.6848 15.7688ZM18.9293 9.26133C18.5707 9.28945 18.2473 9.37383 17.9238 9.16992C17.1785 8.3543 18.0609 10.091 18.307 9.38086C19.193 9.71836 18.293 11.1738 17.734 11.0227C17.4211 10.3477 17.0344 9.60586 16.3523 9.27539C16.8762 9.85547 17.1363 10.5691 17.6988 11.093C17.7375 11.8242 18.4793 10.8258 18.4336 11.3918C18.5039 12.3656 17.3332 12.9492 17.5371 13.9266C17.973 14.816 16.6969 14.9777 16.841 15.7758C16.3277 16.3488 15.7793 17.1223 14.8582 16.9992C14.8582 16.5141 14.6121 16.1027 14.5559 15.6035C14.0566 14.9707 15.0832 14.2922 14.4469 13.6312C13.7121 13.466 14.598 12.4535 13.8422 12.5484C13.3887 12.0949 12.7242 12.5344 12.0738 12.5379C11.2582 12.6152 10.418 11.5359 10.7801 10.773C10.4918 9.97852 11.6941 9.74648 11.7258 9.04688C12.3023 8.56523 13.1215 8.625 13.902 8.5125C13.8457 9.07148 14.4363 9.075 14.8828 9.26133C15.1324 8.65664 15.9094 9.35977 16.4402 8.97656C16.623 8.08359 15.9234 8.62148 15.5227 8.33672C15.0375 7.62656 16.5598 7.97109 16.4016 7.59844C15.8109 7.59492 16.1449 6.8707 15.7266 7.275C16.1027 7.3418 15.6598 7.63711 15.6703 7.29961C15.1008 7.13438 15.6492 7.94648 15.3609 8.02383C14.9215 7.84102 15.1289 8.23125 15.1746 8.29102C14.9848 8.70234 14.7527 7.68633 14.2148 7.71445C13.6805 7.22578 14.0039 7.93594 14.468 8.05195C14.3695 8.08008 14.5242 8.48438 14.4012 8.31211C14.018 7.78477 13.2902 7.4332 12.8578 8.08008C12.8121 8.68477 11.5816 8.85703 11.7785 8.15039C11.4902 7.41914 12.6715 8.1293 12.5625 7.5457C11.8031 7.04297 12.7699 7.20469 13.0266 6.73359C13.6102 6.75117 13.0512 6.25547 13.3254 6.11133C13.2973 6.64922 13.7719 6.54727 14.148 6.44531C14.0566 6.13594 14.373 6.14648 14.1797 5.88984C15.0516 5.5418 13.5152 6.05156 13.8246 5.28867C13.4484 5.02852 13.6664 5.86172 13.8246 5.94961C13.8352 6.20625 13.6172 6.52266 13.3184 5.98477C12.8824 6.26953 12.9281 5.69648 12.9 5.75625C12.8508 5.53477 13.2305 5.52422 13.234 5.1375C13.2023 4.89141 13.2094 4.76133 13.3852 4.74727C13.3992 4.78242 14.1059 4.79297 14.3555 5.08477C13.6734 4.94766 14.2535 5.19727 14.5594 5.33789C14.2324 5.08125 14.6895 5.33789 14.4223 5.04609C14.5277 5.06719 14.1305 4.64531 14.5383 5.01445C14.3168 4.75078 14.9707 4.82812 14.584 4.63125C15.15 4.78945 14.816 4.64531 14.482 4.50117C13.5609 3.95273 16.1098 5.24297 15.0691 4.66992C15.7336 4.81406 13.6488 4.15664 14.598 4.44492C14.2359 4.28672 14.5875 4.37461 14.9145 4.47656C14.3273 4.29375 13.4484 3.95273 13.4836 3.93867C13.6875 3.95273 13.8879 3.99844 14.0813 4.05469C14.6824 4.23398 13.909 4.0125 14.0742 4.01602C16.1414 4.54688 17.952 5.93203 19.0523 7.74258C19.309 8.01328 20.0086 9.80273 19.643 9.0082C19.8082 9.64102 19.8328 10.323 19.9207 10.9699C19.7379 10.766 19.534 10.0137 19.3582 9.59531C19.2844 9.75703 19.2 9.3668 18.9293 9.26133Z" fill="white"/>
</svg>
